<?xml version="1.0" encoding="UTF-8"?>
<svg xmlns="http://www.w3.org/2000/svg" width="318.469" height="66.597" viewBox="0 0 318.469 66.597">
  <g id="_08-kooperation-nationalpark-berchtesgaden-logo-nationalpark-berchtesgarden" data-name="08-kooperation-nationalpark-berchtesgaden-logo-nationalpark-berchtesgarden" transform="translate(-19.173 -11.274)">
    <path id="Pfad_1107" data-name="Pfad 1107" d="M563.095,73.781h3.121V54.016a9.046,9.046,0,0,0,.907,1.8l11.514,17.967h3.558V49.406h-3.122V69.169a12.5,12.5,0,0,0-1.108-2.067l-11.279-17.7h-3.592V73.781Zm33.7-9.018v2.644c0,2.476-2.215,4.307-5.437,4.307-2.048,0-3.156-1.018-3.156-2.748,0-1.8.906-2.644,3.021-2.981,2.082-.34,3.994-.373,5.572-1.222Zm.269,6.644v.1c0,1.729.973,2.618,2.953,2.618a6.7,6.7,0,0,0,1.713-.272V71.544a4.152,4.152,0,0,1-.773.1c-1.04,0-1.14-.577-1.14-1.8V60.966c0-3.764-2.149-5.493-6.848-5.493-4.4,0-7.015,2.238-7.015,5.8v.134h2.786c0-2.136,1.377-3.289,4.129-3.289,2.651,0,3.961.917,3.961,2.715,0,1.186-.034,1.592-.84,1.93a30.827,30.827,0,0,1-4.834.678c-4.028.51-6.008,2.306-6.008,5.561,0,3.286,2.082,5.328,5.707,5.328a8.306,8.306,0,0,0,6.211-2.922Zm10.27-2.1V58.424h3.156V56.05h-3.156V51.1h-2.953v4.95h-2.619v2.375h2.619v11.9c0,2.712.939,3.7,3.759,3.7a13.184,13.184,0,0,0,2.35-.274V71.206c-.738.066-1.242.1-1.578.1-1.309,0-1.578-.543-1.578-2Zm5.674,4.475h2.953V56.05h-2.953V73.781Zm0-20.985h2.953v-3.39h-2.953V52.8Zm6.31,12.1c0,6,3.122,9.432,8.425,9.432,5.27,0,8.392-3.431,8.392-9.432s-3.122-9.425-8.425-9.425c-5.27,0-8.392,3.424-8.392,9.425Zm3.021,0c0-4.406,1.912-6.781,5.4-6.781,3.423,0,5.338,2.375,5.338,6.781s-1.915,6.78-5.338,6.78c-3.456,0-5.4-2.371-5.4-6.78Zm28.465,8.884h2.987V62.287c0-1.727-.034-3.119-.772-4.271-.974-1.592-2.786-2.405-5.438-2.405a6.321,6.321,0,0,0-5.639,3.017V56.05h-2.82V73.781h2.954v-10.1c0-3.492,1.948-5.425,5.2-5.425,2.82,0,3.525,1.458,3.525,4.609V73.781Zm17.387-9.018v2.644c0,2.476-2.217,4.307-5.439,4.307-2.047,0-3.154-1.018-3.154-2.748,0-1.8.906-2.644,3.02-2.981,2.082-.34,4-.373,5.573-1.222Zm.268,6.644v.1c0,1.729.973,2.618,2.955,2.618a6.679,6.679,0,0,0,1.711-.272V71.544a4.149,4.149,0,0,1-.772.1c-1.04,0-1.141-.577-1.141-1.8V60.966c0-3.764-2.149-5.493-6.848-5.493-4.4,0-7.015,2.238-7.015,5.8v.134h2.786c0-2.136,1.376-3.289,4.129-3.289,2.651,0,3.96.917,3.96,2.715,0,1.186-.032,1.592-.838,1.93a30.879,30.879,0,0,1-4.834.678c-4.028.51-6.008,2.306-6.008,5.561,0,3.286,2.081,5.328,5.707,5.328a8.3,8.3,0,0,0,6.209-2.922Zm6.847,2.374H678.3V49.406h-2.989V73.781Zm7.385,7.09h2.888V71.61a6.629,6.629,0,0,0,5.673,2.719c4.565,0,7.721-3.565,7.721-9.465,0-5.831-3.089-9.392-7.687-9.392a6.318,6.318,0,0,0-5.706,3.086V56.05h-2.888V80.871Zm2.786-15.837c0-4.475,1.913-6.882,5.17-6.882,3.222,0,5.236,2.44,5.236,6.509,0,4.576-1.946,7.016-5.2,7.016-3.458,0-5.2-2.2-5.2-6.643Zm27.022-.272v2.644c0,2.476-2.215,4.307-5.437,4.307-2.048,0-3.156-1.018-3.156-2.748,0-1.8.907-2.644,3.021-2.981,2.082-.34,3.994-.373,5.572-1.222Zm.269,6.644v.1c0,1.729.973,2.618,2.953,2.618a6.678,6.678,0,0,0,1.712-.272V71.544a4.146,4.146,0,0,1-.772.1c-1.041,0-1.141-.577-1.141-1.8V60.966c0-3.764-2.148-5.493-6.847-5.493-4.4,0-7.017,2.238-7.017,5.8v.134h2.786c0-2.136,1.377-3.289,4.129-3.289,2.653,0,3.961.917,3.961,2.715,0,1.186-.034,1.592-.839,1.93a30.829,30.829,0,0,1-4.833.678c-4.028.51-6.009,2.306-6.009,5.561,0,3.286,2.081,5.328,5.706,5.328a8.3,8.3,0,0,0,6.211-2.922Zm6.814,2.374h2.953V63.915c0-3.322,1.678-5.084,4.834-5.084a5.013,5.013,0,0,1,.7.033V55.712a5.628,5.628,0,0,0-.772-.035c-2.316,0-3.928,1.153-4.867,3.56V56.05h-2.853V73.781Zm10.809,0h2.953V67.61l3.089-3.017,5.135,9.188h3.324l-6.479-11.255,6.579-6.476h-3.726l-7.922,7.967V49.406h-2.953V73.781Zm-163.974,29.64V94.946H572.7c3.692,0,5.471,1.219,5.471,4.1,0,2.85-1.746,4.373-5.1,4.373Zm0-11.187V84.775h6.009c3.154,0,4.666,1.153,4.666,3.627,0,2.679-1.612,3.832-4.935,3.832Zm-3.289,14.135h10.238c5.136,0,8.157-2.915,8.157-7.286,0-3.154-1.712-5.323-4.6-5.867a5.3,5.3,0,0,0,3.457-5.287c0-3.967-2.517-5.935-7.518-5.935h-9.735v24.375Zm33-5.729a4.231,4.231,0,0,1-4.5,3.6c-3.122,0-5-2.1-5.068-5.867h12.688c.034-.44.034-.881.034-1.323,0-5.762-2.921-8.982-7.922-8.982-4.834,0-7.889,3.491-7.889,9.627,0,5.763,3.055,9.262,7.889,9.262,4.128,0,7.048-2.38,7.687-6.313Zm-9.566-4.747c.268-3.387,1.98-5.185,4.9-5.185,2.987,0,4.7,1.831,4.733,5.185Zm15.54,10.476h2.955V96.505c0-3.321,1.678-5.087,4.834-5.087a4.707,4.707,0,0,1,.7.035V88.3a6.05,6.05,0,0,0-.772-.033c-2.315,0-3.927,1.153-4.866,3.56V88.64H602.1v17.728ZM624.556,94.54h2.92c-.167-3.934-2.955-6.476-7.419-6.476-4.967,0-8.055,3.525-8.055,9.493,0,5.863,2.953,9.36,7.719,9.36,4.633,0,7.486-2.58,7.789-6.92h-2.82a4.463,4.463,0,0,1-4.834,4.2c-3.021,0-4.8-2.372-4.8-6.745s1.847-6.715,5-6.715c2.719,0,4.331,1.391,4.5,3.8Zm17.12,11.829h2.987V94.877c0-1.729-.034-3.119-.772-4.271-.974-1.593-2.786-2.408-5.438-2.408a5.889,5.889,0,0,0-5.5,2.951V81.994h-2.955v24.375h2.955V95.893c0-3.083,2.013-5.048,5.2-5.048,2.854,0,3.525,1.49,3.525,4.609v10.915Zm10.272-4.472V91.012H655.1V88.64h-3.154v-4.95h-2.955v4.95h-2.619v2.372h2.619v11.9c0,2.712.939,3.7,3.759,3.7a13.043,13.043,0,0,0,2.35-.276v-2.542c-.738.068-1.243.1-1.578.1-1.309,0-1.577-.544-1.577-2Zm17.488-1.257a4.231,4.231,0,0,1-4.5,3.6c-3.122,0-5-2.1-5.069-5.867h12.689c.034-.44.034-.881.034-1.323,0-5.762-2.92-8.982-7.923-8.982-4.834,0-7.888,3.491-7.888,9.627,0,5.763,3.054,9.262,7.888,9.262,4.129,0,7.049-2.38,7.688-6.313Zm-9.567-4.747c.269-3.387,1.981-5.185,4.9-5.185,2.988,0,4.7,1.831,4.733,5.185Zm14.334,4.714c.067,4.069,2.551,6.311,7.049,6.311,4.7,0,7.317-2.21,7.317-5.836,0-3.119-1.746-4.239-5.337-5.084l-2.854-.681c-1.88-.439-2.752-.914-2.752-2.2,0-1.591,1.242-2.476,3.626-2.476s3.86,1.087,3.96,2.951H688.1v-.068c0-3.289-2.652-5.425-6.847-5.425s-6.579,2.068-6.579,5.12c0,2.949,1.51,4.137,4.968,4.983l3.29.848c1.812.442,2.686.915,2.686,2.408,0,1.694-1.511,2.814-4.1,2.814-2.752,0-4.263-1.255-4.464-3.662Zm29.975,3.594v2.448c0,3.22-1.443,4.609-5.236,4.609q-4.632,0-4.633-2.745v-.069H691.42v.135c0,3.188,2.685,5.189,7.419,5.189,5.84,0,8.191-2.372,8.191-7.769V88.64h-2.854v2.238a6.533,6.533,0,0,0-5.538-2.814c-4.767,0-7.922,3.728-7.922,9.391,0,5.763,3.188,9.5,7.888,9.5a6.6,6.6,0,0,0,5.572-2.753Zm-5.2-13.46c3.49,0,5.3,2.339,5.3,6.882,0,4.51-1.678,6.646-5.27,6.646-3.222,0-5.2-2.441-5.2-6.747,0-4.407,1.88-6.781,5.17-6.781Zm22.489,6.613V100c0,2.473-2.215,4.3-5.437,4.3-2.048,0-3.156-1.016-3.156-2.745,0-1.8.906-2.644,3.021-2.985,2.081-.337,3.995-.372,5.572-1.219Zm.268,6.644v.1c0,1.729.975,2.616,2.955,2.616a6.609,6.609,0,0,0,1.713-.272v-2.311a4,4,0,0,1-.772.1c-1.041,0-1.142-.576-1.142-1.8V93.554c0-3.761-2.148-5.49-6.847-5.49-4.4,0-7.017,2.237-7.017,5.8V94h2.786c0-2.136,1.377-3.289,4.129-3.289,2.653,0,3.96.917,3.96,2.712,0,1.186-.033,1.6-.839,1.932a31.094,31.094,0,0,1-4.833.678c-4.028.508-6.008,2.306-6.008,5.559,0,3.289,2.081,5.328,5.705,5.328a8.294,8.294,0,0,0,6.209-2.92Zm22.155-22h-2.853v8.815a6.711,6.711,0,0,0-5.707-2.745c-4.565,0-7.687,3.593-7.687,9.493,0,5.795,3.088,9.36,7.687,9.36a7.047,7.047,0,0,0,5.707-2.786v2.237h2.853V81.994Zm-2.752,15.393c0,4.475-1.948,6.882-5.2,6.882-3.222,0-5.236-2.441-5.236-6.509,0-4.576,1.947-7.02,5.2-7.02,3.457,0,5.237,2.237,5.237,6.646Zm18.528,3.254a4.229,4.229,0,0,1-4.5,3.6c-3.122,0-5-2.1-5.069-5.867h12.688c.034-.44.034-.881.034-1.323,0-5.762-2.921-8.982-7.922-8.982-4.834,0-7.888,3.491-7.888,9.627,0,5.763,3.054,9.262,7.888,9.262,4.128,0,7.049-2.38,7.688-6.313ZM750.1,95.893c.269-3.387,1.981-5.185,4.9-5.185,2.988,0,4.7,1.831,4.734,5.185Zm27.223,10.476h2.987V94.877c0-1.729-.034-3.119-.772-4.271-.973-1.593-2.786-2.408-5.438-2.408a6.319,6.319,0,0,0-5.639,3.017V88.64h-2.82v17.728h2.954v-10.1c0-3.492,1.947-5.422,5.2-5.422,2.819,0,3.524,1.455,3.524,4.609v10.915Z" transform="translate(-442.664 -35.897)" fill="#161615" fill-rule="evenodd"></path>
    <g id="Gruppe_1244" data-name="Gruppe 1244" transform="translate(19.173 11.274)">
      <path id="Pfad_1108" data-name="Pfad 1108" d="M245.461,213.133l-14.894-29.789-14.894,29.789Z" transform="translate(-185.884 -153.555)" fill="#83b011"></path>
      <path id="Pfad_1109" data-name="Pfad 1109" d="M100.655,213.133,85.76,183.344,70.866,213.133Z" transform="translate(-70.866 -153.555)" fill="#83b011"></path>
      <path id="Pfad_1110" data-name="Pfad 1110" d="M390.267,213.133l-14.894-29.789-14.9,29.789Z" transform="translate(-300.9 -153.555)" fill="#83b011"></path>
      <path id="Pfad_1111" data-name="Pfad 1111" d="M317.863,68.326,302.968,98.115,288.074,68.326l14.894-29.789Z" transform="translate(-243.391 -38.538)" fill="#0058a7"></path>
      <path id="Pfad_1112" data-name="Pfad 1112" d="M173.058,68.326,158.164,98.115,143.27,68.326l14.894-29.789Z" transform="translate(-128.375 -38.538)" fill="#0058a7"></path>
    </g>
  </g>
</svg>
